<mxfile host="app.diagrams.net" modified="2020-11-02T11:12:57.583Z" agent="5.0 (Macintosh; Intel Mac OS X 10_15_6) AppleWebKit/537.36 (KHTML, like Gecko) Chrome/86.0.4240.80 Safari/537.36" etag="G-inP1wdnDwxdgEsqNLA" version="13.8.8" type="github">
  <diagram id="dHmchS25pWYoXHDNEmSj" name="Page-1">
    <mxGraphModel dx="946" dy="614" grid="1" gridSize="10" guides="1" tooltips="1" connect="1" arrows="1" fold="1" page="1" pageScale="1" pageWidth="827" pageHeight="1169" math="0" shadow="0">
      <root>
        <mxCell id="0" />
        <mxCell id="1" parent="0" />
        <mxCell id="e2YIOsJhv8wdBV_MaUbk-23" style="edgeStyle=orthogonalEdgeStyle;rounded=0;orthogonalLoop=1;jettySize=auto;html=1;exitX=0.5;exitY=1;exitDx=0;exitDy=0;entryX=0.5;entryY=0;entryDx=0;entryDy=0;" parent="1" source="e2YIOsJhv8wdBV_MaUbk-14" target="e2YIOsJhv8wdBV_MaUbk-34" edge="1">
          <mxGeometry relative="1" as="geometry" />
        </mxCell>
        <mxCell id="e2YIOsJhv8wdBV_MaUbk-14" value="开始" style="rounded=1;whiteSpace=wrap;html=1;" parent="1" vertex="1">
          <mxGeometry x="113" y="30" width="117" height="40" as="geometry" />
        </mxCell>
        <mxCell id="e2YIOsJhv8wdBV_MaUbk-30" style="edgeStyle=orthogonalEdgeStyle;rounded=0;orthogonalLoop=1;jettySize=auto;html=1;exitX=0.5;exitY=1;exitDx=0;exitDy=0;entryX=0.5;entryY=0;entryDx=0;entryDy=0;" parent="1" source="e2YIOsJhv8wdBV_MaUbk-21" target="e2YIOsJhv8wdBV_MaUbk-26" edge="1">
          <mxGeometry relative="1" as="geometry" />
        </mxCell>
        <mxCell id="e2YIOsJhv8wdBV_MaUbk-21" value="保存活动信息" style="rounded=0;whiteSpace=wrap;html=1;" parent="1" vertex="1">
          <mxGeometry x="108.5" y="260" width="123" height="50" as="geometry" />
        </mxCell>
        <mxCell id="e2YIOsJhv8wdBV_MaUbk-33" style="edgeStyle=orthogonalEdgeStyle;rounded=0;orthogonalLoop=1;jettySize=auto;html=1;exitX=0.5;exitY=1;exitDx=0;exitDy=0;entryX=0.5;entryY=0;entryDx=0;entryDy=0;" parent="1" source="e2YIOsJhv8wdBV_MaUbk-26" target="e2YIOsJhv8wdBV_MaUbk-31" edge="1">
          <mxGeometry relative="1" as="geometry" />
        </mxCell>
        <mxCell id="e2YIOsJhv8wdBV_MaUbk-26" value="保存物流信息" style="rounded=0;whiteSpace=wrap;html=1;" parent="1" vertex="1">
          <mxGeometry x="110" y="355" width="120" height="50" as="geometry" />
        </mxCell>
        <mxCell id="e2YIOsJhv8wdBV_MaUbk-31" value="结束" style="rounded=1;whiteSpace=wrap;html=1;" parent="1" vertex="1">
          <mxGeometry x="110" y="480" width="120" height="30" as="geometry" />
        </mxCell>
        <mxCell id="e2YIOsJhv8wdBV_MaUbk-36" value="数据校验和处理" style="edgeStyle=orthogonalEdgeStyle;rounded=0;orthogonalLoop=1;jettySize=auto;html=1;exitX=0.5;exitY=1;exitDx=0;exitDy=0;entryX=0.5;entryY=0;entryDx=0;entryDy=0;" parent="1" source="e2YIOsJhv8wdBV_MaUbk-34" target="e2YIOsJhv8wdBV_MaUbk-21" edge="1">
          <mxGeometry relative="1" as="geometry" />
        </mxCell>
        <mxCell id="e2YIOsJhv8wdBV_MaUbk-34" value="&lt;span&gt;创建指定派发活动&lt;/span&gt;" style="rounded=0;whiteSpace=wrap;html=1;" parent="1" vertex="1">
          <mxGeometry x="111.5" y="150" width="120" height="40" as="geometry" />
        </mxCell>
        <mxCell id="e2YIOsJhv8wdBV_MaUbk-54" style="edgeStyle=orthogonalEdgeStyle;rounded=0;orthogonalLoop=1;jettySize=auto;html=1;exitX=0.5;exitY=1;exitDx=0;exitDy=0;entryX=0.5;entryY=0;entryDx=0;entryDy=0;" parent="1" source="e2YIOsJhv8wdBV_MaUbk-51" target="e2YIOsJhv8wdBV_MaUbk-52" edge="1">
          <mxGeometry relative="1" as="geometry" />
        </mxCell>
        <mxCell id="e2YIOsJhv8wdBV_MaUbk-51" value="开始" style="rounded=1;whiteSpace=wrap;html=1;" parent="1" vertex="1">
          <mxGeometry x="545" y="40" width="90" height="30" as="geometry" />
        </mxCell>
        <mxCell id="e2YIOsJhv8wdBV_MaUbk-85" style="edgeStyle=orthogonalEdgeStyle;rounded=0;orthogonalLoop=1;jettySize=auto;html=1;exitX=0.5;exitY=1;exitDx=0;exitDy=0;entryX=0.5;entryY=0;entryDx=0;entryDy=0;" parent="1" source="e2YIOsJhv8wdBV_MaUbk-52" target="e2YIOsJhv8wdBV_MaUbk-55" edge="1">
          <mxGeometry relative="1" as="geometry" />
        </mxCell>
        <mxCell id="e2YIOsJhv8wdBV_MaUbk-52" value="xxljob触发同步物流信息接口" style="rounded=0;whiteSpace=wrap;html=1;" parent="1" vertex="1">
          <mxGeometry x="530" y="120" width="120" height="60" as="geometry" />
        </mxCell>
        <mxCell id="e2YIOsJhv8wdBV_MaUbk-58" style="edgeStyle=orthogonalEdgeStyle;rounded=0;orthogonalLoop=1;jettySize=auto;html=1;exitX=0.5;exitY=1;exitDx=0;exitDy=0;entryX=0.5;entryY=0;entryDx=0;entryDy=0;" parent="1" source="e2YIOsJhv8wdBV_MaUbk-55" target="e2YIOsJhv8wdBV_MaUbk-56" edge="1">
          <mxGeometry relative="1" as="geometry" />
        </mxCell>
        <mxCell id="e2YIOsJhv8wdBV_MaUbk-55" value="数据库查询对应物流信息列表" style="rounded=0;whiteSpace=wrap;html=1;" parent="1" vertex="1">
          <mxGeometry x="530" y="210" width="120" height="60" as="geometry" />
        </mxCell>
        <mxCell id="e2YIOsJhv8wdBV_MaUbk-59" style="edgeStyle=orthogonalEdgeStyle;rounded=0;orthogonalLoop=1;jettySize=auto;html=1;exitX=0;exitY=0.5;exitDx=0;exitDy=0;" parent="1" source="e2YIOsJhv8wdBV_MaUbk-56" target="e2YIOsJhv8wdBV_MaUbk-60" edge="1">
          <mxGeometry relative="1" as="geometry">
            <mxPoint x="410" y="345.0588235294117" as="targetPoint" />
            <Array as="points">
              <mxPoint x="481" y="363" />
              <mxPoint x="481" y="840" />
              <mxPoint x="565" y="840" />
            </Array>
          </mxGeometry>
        </mxCell>
        <mxCell id="e2YIOsJhv8wdBV_MaUbk-61" value="是" style="edgeLabel;html=1;align=center;verticalAlign=middle;resizable=0;points=[];" parent="e2YIOsJhv8wdBV_MaUbk-59" vertex="1" connectable="0">
          <mxGeometry x="-0.7089" y="-5" relative="1" as="geometry">
            <mxPoint as="offset" />
          </mxGeometry>
        </mxCell>
        <mxCell id="e2YIOsJhv8wdBV_MaUbk-64" value="否" style="edgeStyle=orthogonalEdgeStyle;rounded=0;orthogonalLoop=1;jettySize=auto;html=1;exitX=1;exitY=0.5;exitDx=0;exitDy=0;" parent="1" source="e2YIOsJhv8wdBV_MaUbk-56" target="e2YIOsJhv8wdBV_MaUbk-62" edge="1">
          <mxGeometry relative="1" as="geometry" />
        </mxCell>
        <mxCell id="e2YIOsJhv8wdBV_MaUbk-56" value="列表是否为空" style="rhombus;whiteSpace=wrap;html=1;" parent="1" vertex="1">
          <mxGeometry x="541.5" y="327.5" width="97" height="70" as="geometry" />
        </mxCell>
        <mxCell id="e2YIOsJhv8wdBV_MaUbk-60" value="结束" style="rounded=1;whiteSpace=wrap;html=1;" parent="1" vertex="1">
          <mxGeometry x="520" y="920" width="90" height="30" as="geometry" />
        </mxCell>
        <mxCell id="e2YIOsJhv8wdBV_MaUbk-69" style="edgeStyle=orthogonalEdgeStyle;rounded=0;orthogonalLoop=1;jettySize=auto;html=1;exitX=0.5;exitY=1;exitDx=0;exitDy=0;" parent="1" source="e2YIOsJhv8wdBV_MaUbk-62" edge="1">
          <mxGeometry relative="1" as="geometry">
            <mxPoint x="730" y="429" as="targetPoint" />
          </mxGeometry>
        </mxCell>
        <mxCell id="e2YIOsJhv8wdBV_MaUbk-62" value="根据条件筛选出物流列表中不需要同步的数据" style="rounded=1;whiteSpace=wrap;html=1;" parent="1" vertex="1">
          <mxGeometry x="670" y="340" width="120" height="45" as="geometry" />
        </mxCell>
        <mxCell id="e2YIOsJhv8wdBV_MaUbk-86" value="是" style="edgeStyle=orthogonalEdgeStyle;rounded=0;orthogonalLoop=1;jettySize=auto;html=1;exitX=0;exitY=0.5;exitDx=0;exitDy=0;entryX=1;entryY=0.5;entryDx=0;entryDy=0;" parent="1" source="e2YIOsJhv8wdBV_MaUbk-65" target="e2YIOsJhv8wdBV_MaUbk-71" edge="1">
          <mxGeometry relative="1" as="geometry" />
        </mxCell>
        <mxCell id="e2YIOsJhv8wdBV_MaUbk-89" style="edgeStyle=orthogonalEdgeStyle;rounded=0;orthogonalLoop=1;jettySize=auto;html=1;exitX=0.5;exitY=1;exitDx=0;exitDy=0;entryX=0.5;entryY=0;entryDx=0;entryDy=0;" parent="1" source="e2YIOsJhv8wdBV_MaUbk-65" target="e2YIOsJhv8wdBV_MaUbk-70" edge="1">
          <mxGeometry relative="1" as="geometry" />
        </mxCell>
        <mxCell id="e2YIOsJhv8wdBV_MaUbk-91" value="否" style="edgeLabel;html=1;align=center;verticalAlign=middle;resizable=0;points=[];" parent="e2YIOsJhv8wdBV_MaUbk-89" vertex="1" connectable="0">
          <mxGeometry x="-0.6841" y="2" relative="1" as="geometry">
            <mxPoint as="offset" />
          </mxGeometry>
        </mxCell>
        <mxCell id="e2YIOsJhv8wdBV_MaUbk-65" value="是否存在不需要同步的数据" style="rhombus;whiteSpace=wrap;html=1;" parent="1" vertex="1">
          <mxGeometry x="675" y="425" width="115" height="95" as="geometry" />
        </mxCell>
        <mxCell id="e2YIOsJhv8wdBV_MaUbk-99" style="edgeStyle=orthogonalEdgeStyle;rounded=0;orthogonalLoop=1;jettySize=auto;html=1;exitX=0.5;exitY=1;exitDx=0;exitDy=0;entryX=0.5;entryY=0;entryDx=0;entryDy=0;" parent="1" source="e2YIOsJhv8wdBV_MaUbk-70" target="e2YIOsJhv8wdBV_MaUbk-60" edge="1">
          <mxGeometry relative="1" as="geometry" />
        </mxCell>
        <mxCell id="e2YIOsJhv8wdBV_MaUbk-70" value="调用远程接口发送需要同步的数据到物流仓库" style="rounded=0;whiteSpace=wrap;html=1;" parent="1" vertex="1">
          <mxGeometry x="673.5" y="700" width="118" height="60" as="geometry" />
        </mxCell>
        <mxCell id="e2YIOsJhv8wdBV_MaUbk-102" style="edgeStyle=orthogonalEdgeStyle;rounded=0;orthogonalLoop=1;jettySize=auto;html=1;exitX=0.5;exitY=1;exitDx=0;exitDy=0;entryX=0.5;entryY=0;entryDx=0;entryDy=0;" parent="1" source="e2YIOsJhv8wdBV_MaUbk-71" target="e2YIOsJhv8wdBV_MaUbk-100" edge="1">
          <mxGeometry relative="1" as="geometry" />
        </mxCell>
        <mxCell id="e2YIOsJhv8wdBV_MaUbk-71" value="数据库修改不需要同步的数据的物流状态，取消同步" style="rounded=0;whiteSpace=wrap;html=1;" parent="1" vertex="1">
          <mxGeometry x="505" y="442.5" width="120" height="57.5" as="geometry" />
        </mxCell>
        <mxCell id="e2YIOsJhv8wdBV_MaUbk-87" style="edgeStyle=orthogonalEdgeStyle;rounded=0;orthogonalLoop=1;jettySize=auto;html=1;exitX=0.5;exitY=1;exitDx=0;exitDy=0;" parent="1" source="e2YIOsJhv8wdBV_MaUbk-70" target="e2YIOsJhv8wdBV_MaUbk-70" edge="1">
          <mxGeometry relative="1" as="geometry" />
        </mxCell>
        <mxCell id="e2YIOsJhv8wdBV_MaUbk-105" style="edgeStyle=orthogonalEdgeStyle;rounded=0;orthogonalLoop=1;jettySize=auto;html=1;exitX=0.5;exitY=1;exitDx=0;exitDy=0;entryX=0.5;entryY=0;entryDx=0;entryDy=0;" parent="1" source="e2YIOsJhv8wdBV_MaUbk-100" target="e2YIOsJhv8wdBV_MaUbk-60" edge="1">
          <mxGeometry relative="1" as="geometry" />
        </mxCell>
        <mxCell id="e2YIOsJhv8wdBV_MaUbk-106" value="否" style="edgeLabel;html=1;align=center;verticalAlign=middle;resizable=0;points=[];" parent="e2YIOsJhv8wdBV_MaUbk-105" vertex="1" connectable="0">
          <mxGeometry x="-0.38" relative="1" as="geometry">
            <mxPoint as="offset" />
          </mxGeometry>
        </mxCell>
        <mxCell id="e2YIOsJhv8wdBV_MaUbk-108" style="edgeStyle=orthogonalEdgeStyle;rounded=0;orthogonalLoop=1;jettySize=auto;html=1;exitX=1;exitY=0.5;exitDx=0;exitDy=0;entryX=0.5;entryY=0;entryDx=0;entryDy=0;" parent="1" source="e2YIOsJhv8wdBV_MaUbk-100" target="e2YIOsJhv8wdBV_MaUbk-70" edge="1">
          <mxGeometry relative="1" as="geometry" />
        </mxCell>
        <mxCell id="e2YIOsJhv8wdBV_MaUbk-109" value="是" style="edgeLabel;html=1;align=center;verticalAlign=middle;resizable=0;points=[];" parent="e2YIOsJhv8wdBV_MaUbk-108" vertex="1" connectable="0">
          <mxGeometry x="-0.59" y="3" relative="1" as="geometry">
            <mxPoint as="offset" />
          </mxGeometry>
        </mxCell>
        <mxCell id="e2YIOsJhv8wdBV_MaUbk-100" value="是否存在需要同步的数据" style="rhombus;whiteSpace=wrap;html=1;" parent="1" vertex="1">
          <mxGeometry x="512.5" y="570" width="105" height="76" as="geometry" />
        </mxCell>
        <mxCell id="V8CAXn5dS8xwnKJE48gR-4" style="edgeStyle=orthogonalEdgeStyle;rounded=0;orthogonalLoop=1;jettySize=auto;html=1;exitX=0.5;exitY=1;exitDx=0;exitDy=0;entryX=0.5;entryY=0;entryDx=0;entryDy=0;" edge="1" parent="1" source="V8CAXn5dS8xwnKJE48gR-1" target="V8CAXn5dS8xwnKJE48gR-2">
          <mxGeometry relative="1" as="geometry" />
        </mxCell>
        <mxCell id="V8CAXn5dS8xwnKJE48gR-1" value="用户提交订单" style="rounded=0;whiteSpace=wrap;html=1;" vertex="1" parent="1">
          <mxGeometry x="305" y="260" width="120" height="50" as="geometry" />
        </mxCell>
        <mxCell id="V8CAXn5dS8xwnKJE48gR-5" value="是" style="edgeStyle=orthogonalEdgeStyle;rounded=0;orthogonalLoop=1;jettySize=auto;html=1;" edge="1" parent="1" source="V8CAXn5dS8xwnKJE48gR-2" target="e2YIOsJhv8wdBV_MaUbk-26">
          <mxGeometry relative="1" as="geometry" />
        </mxCell>
        <mxCell id="V8CAXn5dS8xwnKJE48gR-7" value="否" style="edgeStyle=orthogonalEdgeStyle;rounded=0;orthogonalLoop=1;jettySize=auto;html=1;exitX=0.5;exitY=1;exitDx=0;exitDy=0;" edge="1" parent="1" source="V8CAXn5dS8xwnKJE48gR-2">
          <mxGeometry relative="1" as="geometry">
            <mxPoint x="365" y="470" as="targetPoint" />
          </mxGeometry>
        </mxCell>
        <mxCell id="V8CAXn5dS8xwnKJE48gR-2" value="订单对应的商品是否关联买赠活动" style="rhombus;whiteSpace=wrap;html=1;" vertex="1" parent="1">
          <mxGeometry x="300" y="345" width="130" height="70" as="geometry" />
        </mxCell>
        <mxCell id="V8CAXn5dS8xwnKJE48gR-8" value="创建物流信息" style="text;html=1;align=center;verticalAlign=middle;resizable=0;points=[];autosize=1;" vertex="1" parent="1">
          <mxGeometry x="125" width="90" height="20" as="geometry" />
        </mxCell>
        <mxCell id="V8CAXn5dS8xwnKJE48gR-9" value="同步物流信息" style="text;html=1;align=center;verticalAlign=middle;resizable=0;points=[];autosize=1;" vertex="1" parent="1">
          <mxGeometry x="505" width="90" height="20" as="geometry" />
        </mxCell>
      </root>
    </mxGraphModel>
  </diagram>
</mxfile>
